# xmcd
#
# Track frame offsets:
#	150
#	26161
#	39958
#	64784
#	81886
#	98217
#	117005
#	132837
#	146484
#	161238
#	177301
#	197096
#	211723
#	229671
#	243618
#
# Disc length: 3531 seconds
#
# Revision: 1
# Processed by: cddbd v1.5.2PL0 Copyright (c) Steve Scherf et al.
# Submitted via: audiograbber 1.83.01
#
DISCID=cc0dc90f
DTITLE=Various Artist - Tribute To JJ Cale Vol 1
DYEAR=2010
DGENRE=Blues Rock
TTITLE0=JJ Gray and Swamp Cabbage - Money Talks
TTITLE1=Jimmy Hall  and Swamp Cabbage - Don't Cry Sister
TTITLE2=Jimmy Hall  and Swamp Cabbage - Sensitive Kind
TTITLE3=Swamp Cabbage - Cajun Moon
TTITLE4=Swamp Cabbage - Same Old Blues
TTITLE5=Rufus Huff - Cocaine
TTITLE6=Rufus Huff - Crazy Mama
TTITLE7=Dixie Tabernacle - Any Way The Wind Blows
TTITLE8=Dixie Tabernacle - Lies
TTITLE9=The Persuasions - I'll Make Love To You Anytime
TTITLE10=The Persuasions - Travelin' Light
TTITLE11=Tim and Roddy Smith's Groove Gang - Ride Me High
TTITLE12=Tim and Roddy Smith's Groove Gang - Louisianna Women
TTITLE13=Greg Skaff and Darryl Johnson - Don't Wait
TTITLE14=Greg Skaff and Jimmy Hall - Money Talks
EXTD=
EXTT0=
EXTT1=
EXTT2=
EXTT3=
EXTT4=
EXTT5=
EXTT6=
EXTT7=
EXTT8=
EXTT9=
EXTT10=
EXTT11=
EXTT12=
EXTT13=
EXTT14=
PLAYORDER=
